<svg width="53" height="55" viewBox="0 0 53 55" fill="none" xmlns="http://www.w3.org/2000/svg">
<ellipse cx="26.5003" cy="27.5039" rx="25.9447" ry="27" fill="#1D4ED8" fill-opacity="0.2"/>
<path d="M17.4111 16.5039C16.0753 16.5039 14.9824 17.5477 14.9824 18.8234V32.7401L18.6254 29.2609H29.5544C30.8902 29.2609 31.9831 28.2171 31.9831 26.9414V18.8234C31.9831 17.5477 30.8902 16.5039 29.5544 16.5039H17.4111ZM34.4118 22.3025V26.9414C34.4118 29.4998 32.2333 31.5803 29.5544 31.5803H22.2684V32.7401C22.2684 34.0158 23.3613 35.0595 24.6971 35.0595H35.6261L39.2691 38.5387V24.622C39.2691 23.3463 38.1762 22.3025 36.8404 22.3025H34.4118Z" fill="#1D4ED8"/>
</svg>
